<svg width="17" height="20" viewBox="0 0 17 20" fill="none" xmlns="http://www.w3.org/2000/svg">
<path d="M1.62516 17.2356C2.62516 18.5 4.48516 18.5 8.20683 18.5H8.80683C12.5285 18.5 14.3893 18.5 15.3893 17.2356M1.62516 17.2356C0.62516 15.9704 0.968493 14.0506 1.65433 10.2094C2.14183 7.47937 2.38516 6.1135 3.31099 5.30675M15.3893 17.2356C16.3893 15.9704 16.046 14.0506 15.3602 10.2094C14.8727 7.47937 14.6285 6.1135 13.7027 5.30675M13.7027 5.30675C12.7777 4.5 11.4535 4.5 8.80766 4.5H8.20599C5.56016 4.5 4.23683 4.5 3.31099 5.30675" stroke="#8A6E4E" stroke-width="1.5"/>
<path d="M6.00684 4.5V3.625C6.00684 2.92881 6.27023 2.26113 6.73907 1.76884C7.20791 1.27656 7.84379 1 8.50684 1C9.16988 1 9.80576 1.27656 10.2746 1.76884C10.7434 2.26113 11.0068 2.92881 11.0068 3.625V4.5" stroke="#8A6E4E" stroke-width="1.5" stroke-linecap="round"/>
</svg>
