<svg width="19" height="20" viewBox="0 0 19 20" fill="none" xmlns="http://www.w3.org/2000/svg">
<path d="M3.62516 17.2356C4.62516 18.5 6.48516 18.5 10.2068 18.5H10.8068C14.5285 18.5 16.3893 18.5 17.3893 17.2356M3.62516 17.2356C2.62516 15.9704 2.96849 14.0506 3.65433 10.2094C4.14183 7.47937 4.38516 6.1135 5.31099 5.30675M17.3893 17.2356C18.3893 15.9704 18.046 14.0506 17.3602 10.2094C16.8727 7.47937 16.6285 6.1135 15.7027 5.30675M15.7027 5.30675C14.7777 4.5 13.4535 4.5 10.8077 4.5H10.206C7.56016 4.5 6.23683 4.5 5.31099 5.30675" stroke="#8A6E4E" stroke-width="1.5"/>
<path d="M8.00684 4.5V3.625C8.00684 2.92881 8.27023 2.26113 8.73907 1.76884C9.20791 1.27656 9.84379 1 10.5068 1C11.1699 1 11.8058 1.27656 12.2746 1.76884C12.7434 2.26113 13.0068 2.92881 13.0068 3.625V4.5" stroke="#8A6E4E" stroke-width="1.5" stroke-linecap="round"/>
<circle cx="4.5" cy="15.5" r="4.5" fill="#8A6E4E"/>
</svg>
