<svg width="67" height="18" viewBox="0 0 67 18" fill="none" xmlns="http://www.w3.org/2000/svg">
<path d="M3.69631 4.08181C3.16198 4.08181 2.70623 3.9168 2.32906 3.58677C1.9676 3.24103 1.78687 2.80885 1.78687 2.29024C1.78687 1.75591 1.9676 1.32373 2.32906 0.993706C2.70623 0.663679 3.16198 0.498665 3.69631 0.498665C4.23064 0.498665 4.67853 0.663679 5.03999 0.993706C5.40145 1.32373 5.58218 1.75591 5.58218 2.29024C5.58218 2.80885 5.40145 3.24103 5.03999 3.58677C4.67853 3.9168 4.23064 4.08181 3.69631 4.08181ZM0.914655 17V16.7643L1.24468 16.67C1.55899 16.5757 1.77115 16.4342 1.88116 16.2457C2.00689 16.0571 2.06975 15.8056 2.06975 15.4913V8.11285C2.06975 7.78283 2.00689 7.53923 1.88116 7.38208C1.77115 7.20921 1.55899 7.09134 1.24468 7.02848L0.914655 6.95776V6.72203L5.22858 5.3312L5.46431 5.56693L5.39359 8.91435V15.5149C5.39359 15.8292 5.44859 16.0806 5.5586 16.2692C5.68433 16.4578 5.89649 16.5993 6.19508 16.6935L6.43082 16.7643V17H0.914655ZM12.2893 17.3536C11.5193 17.3536 10.8278 17.2593 10.2149 17.0707C9.60198 16.8978 9.03622 16.6778 8.51761 16.4107L8.54118 13.6054H8.77691L9.57841 15.0198C9.92415 15.6485 10.3013 16.1199 10.7099 16.4342C11.1342 16.7328 11.6686 16.8821 12.3129 16.8821C13.0673 16.8821 13.6723 16.7171 14.1281 16.3871C14.5995 16.0414 14.8353 15.5856 14.8353 15.0198C14.8353 14.5012 14.6702 14.0769 14.3402 13.7469C14.0102 13.4169 13.3973 13.1183 12.5015 12.8511L11.5114 12.5446C10.5528 12.2618 9.79843 11.8217 9.24838 11.2245C8.69834 10.6273 8.42331 9.89657 8.42331 9.03221C8.42331 7.99499 8.83192 7.11492 9.64913 6.392C10.4663 5.66908 11.6371 5.30763 13.1616 5.30763C13.7745 5.30763 14.3481 5.37835 14.8824 5.51979C15.4325 5.64551 15.9589 5.84195 16.4618 6.10912L16.3204 8.65504H16.0846L15.2596 7.19349C14.961 6.67488 14.6624 6.31342 14.3638 6.10912C14.0809 5.8891 13.6487 5.77909 13.0673 5.77909C12.5329 5.77909 12.03 5.92839 11.5586 6.22699C11.0871 6.52558 10.8514 6.9499 10.8514 7.49995C10.8514 8.03427 11.0478 8.4586 11.4407 8.77291C11.8493 9.08722 12.4465 9.37795 13.2323 9.64512L14.2931 9.95157C15.4246 10.2973 16.2339 10.7766 16.7211 11.3895C17.2083 11.9867 17.4519 12.7097 17.4519 13.5583C17.4519 14.7055 16.9962 15.6249 16.0846 16.3164C15.1889 17.0079 13.9238 17.3536 12.2893 17.3536ZM21.9749 4.08181C21.4405 4.08181 20.9848 3.9168 20.6076 3.58677C20.2461 3.24103 20.0654 2.80885 20.0654 2.29024C20.0654 1.75591 20.2461 1.32373 20.6076 0.993706C20.9848 0.663679 21.4405 0.498665 21.9749 0.498665C22.5092 0.498665 22.9571 0.663679 23.3185 0.993706C23.68 1.32373 23.8607 1.75591 23.8607 2.29024C23.8607 2.80885 23.68 3.24103 23.3185 3.58677C22.9571 3.9168 22.5092 4.08181 21.9749 4.08181ZM19.1932 17V16.7643L19.5232 16.67C19.8375 16.5757 20.0497 16.4342 20.1597 16.2457C20.2854 16.0571 20.3483 15.8056 20.3483 15.4913V8.11285C20.3483 7.78283 20.2854 7.53923 20.1597 7.38208C20.0497 7.20921 19.8375 7.09134 19.5232 7.02848L19.1932 6.95776V6.72203L23.5071 5.3312L23.7429 5.56693L23.6721 8.91435V15.5149C23.6721 15.8292 23.7271 16.0806 23.8371 16.2692C23.9629 16.4578 24.175 16.5993 24.4736 16.6935L24.7094 16.7643V17H19.1932Z" fill="black"/>
<path d="M30.5207 17.3065L26.5368 17V16.7643L26.7726 16.7171C27.3855 16.5757 27.6919 16.1828 27.6919 15.5385V2.92672C27.6919 2.59669 27.6369 2.34524 27.5269 2.17237C27.4326 1.9995 27.2283 1.88163 26.914 1.81877L26.584 1.72448V1.48875L30.78 0.475092L31.0629 0.687252L30.9686 4.01109V6.392C31.4872 6.03054 32.053 5.76338 32.6659 5.59051C33.2788 5.40192 33.8996 5.30763 34.5282 5.30763C35.424 5.30763 36.2176 5.51979 36.9091 5.94411C37.6006 6.35271 38.1428 6.99705 38.5357 7.87712C38.9443 8.74147 39.1486 9.85728 39.1486 11.2245C39.1486 12.5918 38.9207 13.7312 38.465 14.6427C38.0249 15.5385 37.4277 16.2142 36.6734 16.67C35.9347 17.1257 35.1175 17.3536 34.2218 17.3536C33.6403 17.3536 33.0509 17.275 32.4538 17.1179C31.8723 16.9607 31.3537 16.7407 30.8979 16.4578L30.5207 17.3065ZM33.0431 16.5521C33.546 16.5521 33.986 16.395 34.3632 16.0806C34.7404 15.7663 35.039 15.232 35.259 14.4777C35.479 13.7076 35.589 12.6546 35.589 11.3188C35.589 9.983 35.4869 8.95364 35.2826 8.23072C35.0782 7.5078 34.7875 7.00491 34.4103 6.72203C34.0489 6.43915 33.6088 6.29771 33.0902 6.29771C32.3516 6.29771 31.668 6.50201 31.0394 6.91061V15.9628C31.3379 16.1514 31.6444 16.3007 31.9587 16.4107C32.273 16.505 32.6345 16.5521 33.0431 16.5521ZM46.9081 17.3536C45.8394 17.3536 44.865 17.1257 43.985 16.67C43.1206 16.1985 42.4291 15.5227 41.9105 14.6427C41.4076 13.7469 41.1562 12.6546 41.1562 11.366C41.1562 10.093 41.4312 9.00864 41.9812 8.11285C42.547 7.20135 43.2935 6.50987 44.2207 6.0384C45.1636 5.55122 46.193 5.30763 47.3088 5.30763C48.2203 5.30763 48.9904 5.45692 49.619 5.75552C50.2476 6.05411 50.7269 6.447 51.057 6.93419C51.387 7.40565 51.552 7.90069 51.552 8.41931C51.552 8.85934 51.4184 9.20508 51.1513 9.45653C50.8841 9.69227 50.5384 9.81013 50.114 9.81013C49.6583 9.81013 49.289 9.64512 49.0061 9.31509C48.7232 8.98507 48.5582 8.55289 48.5111 8.01856C48.4953 7.67282 48.5032 7.38208 48.5346 7.14635C48.5661 6.8949 48.5661 6.64345 48.5346 6.392C48.4718 6.12484 48.3696 5.95196 48.2282 5.87339C48.1025 5.77909 47.9217 5.73195 47.686 5.73195C46.7273 5.73195 45.9809 6.14841 45.4465 6.98133C44.9279 7.81426 44.6686 9.14222 44.6686 10.9652C44.6686 12.5525 44.9593 13.7705 45.5408 14.6191C46.138 15.452 47.0495 15.8685 48.2753 15.8685C49.014 15.8685 49.6111 15.7349 50.0669 15.4677C50.5226 15.2006 50.9627 14.7998 51.387 14.2655L51.6227 14.4541C51.2298 15.3813 50.6248 16.0964 49.8076 16.5993C48.9904 17.1022 48.0239 17.3536 46.9081 17.3536ZM53.4471 17V16.7643L53.7771 16.67C54.3272 16.5128 54.6022 16.1278 54.6022 15.5149V8.13643C54.6022 7.79068 54.5472 7.53923 54.4372 7.38208C54.3272 7.20921 54.115 7.09134 53.8007 7.02848L53.4471 6.93419V6.69845L57.4781 5.3312L57.7139 5.56693L57.9025 6.98133C58.4525 6.49415 59.0733 6.0934 59.7647 5.77909C60.4562 5.46478 61.1399 5.30763 61.8156 5.30763C62.8529 5.30763 63.6465 5.59051 64.1965 6.15627C64.7623 6.72203 65.0452 7.58638 65.0452 8.74933V15.5385C65.0452 16.1514 65.3438 16.5364 65.941 16.6935L66.1531 16.7643V17H60.5898V16.7643L60.8963 16.67C61.4463 16.4971 61.7213 16.1121 61.7213 15.5149V7.99499C61.7213 6.98919 61.2184 6.48629 60.2126 6.48629C59.5212 6.48629 58.7668 6.83204 57.9496 7.52352V15.5385C57.9496 16.1514 58.2246 16.5364 58.7747 16.6935L58.9868 16.7643V17H53.4471Z" fill="#8A6E4E"/>
</svg>
